<svg viewBox="0 0 24 24" fill="none" xmlns="http://www.w3.org/2000/svg">
<path d="M12 4C12.2652 4.00006 12.5195 4.10545 12.707 4.293L16.707 8.293C16.8892 8.4816 16.99 8.7342 16.9877 8.9964C16.9854 9.2586 16.8803 9.50941 16.6948 9.69482C16.5094 9.88023 16.2586 9.9854 15.9964 9.98767C15.7342 9.98995 15.4816 9.88916 15.293 9.707L12 6.414L8.70703 9.707C8.51843 9.88916 8.26583 9.98995 8.00363 9.98767C7.74143 9.9854 7.49062 9.88023 7.30521 9.69482C7.1198 9.50941 7.01463 9.2586 7.01236 8.9964C7.01008 8.7342 7.11087 8.4816 7.29303 8.293L11.293 4.293C11.4805 4.10545 11.7348 4.00006 12 4ZM7.29303 14.293C7.48056 14.1055 7.73487 14.0002 8.00003 14.0002C8.26519 14.0002 8.5195 14.1055 8.70703 14.293L12 17.586L15.293 14.293C15.4816 14.1108 15.7342 14.01 15.9964 14.0123C16.2586 14.0146 16.5094 14.1198 16.6948 14.3052C16.8803 14.4906 16.9854 14.7414 16.9877 15.0036C16.99 15.2658 16.8892 15.5184 16.707 15.707L12.707 19.707C12.5195 19.8945 12.2652 19.9998 12 19.9998C11.7349 19.9998 11.4806 19.8945 11.293 19.707L7.29303 15.707C7.10556 15.5195 7.00024 15.2652 7.00024 15C7.00024 14.7348 7.10556 14.4805 7.29303 14.293Z" fill="currentColor"/>
</svg>
