<svg viewBox="0 0 17 20" fill="none" xmlns="http://www.w3.org/2000/svg">
    <path fill-rule="evenodd" clip-rule="evenodd"
        d="M15.6578 12.7888V2.05199L15.0262 1.42041H2.69777C2.40806 1.42362 2.12133 1.47925 1.85145 1.58462C1.57941 1.70552 1.33425 1.87952 1.13036 2.09643C0.92646 2.31334 0.767937 2.56879 0.664084 2.84778C0.560762 3.09624 0.505058 3.3619 0.499873 3.63094V15.6309C0.496837 15.9212 0.5527 16.2091 0.664084 16.4773C0.887663 17.0166 1.31461 17.4474 1.85145 17.6773C2.12133 17.7826 2.40806 17.8383 2.69777 17.8415H3.02619V16.5783H2.69777C2.57173 16.5787 2.44699 16.5529 2.33145 16.5025C2.10276 16.4077 1.92105 16.2259 1.82619 15.9973C1.78583 15.8793 1.76451 15.7556 1.76303 15.6309V14.9994C1.76451 14.8747 1.78583 14.751 1.82619 14.633C1.92105 14.4044 2.10276 14.2226 2.33145 14.1278C2.44543 14.0781 2.56838 14.0523 2.69272 14.052H14.3946V16.5783H9.34198V17.8415H15.0262L15.6578 17.2099V12.7888ZM3.02619 12.7888V2.68357H14.3946V12.7888H3.02619ZM4.28935 3.94673H5.5525V5.20988H4.28935V3.94673ZM4.28935 6.47304H5.5525V7.7362H4.28935V6.47304ZM5.5525 8.99936H4.28935V10.2625H5.5525V8.99936ZM6.18408 17.1973L4.64303 19.1046H4.28935V15.3151H8.07882V19.1046H7.72514L6.18408 17.1973Z"
        fill="currentColor" />
</svg>
    