<svg viewBox="0 0 41 40" fill="none" xmlns="http://www.w3.org/2000/svg">
    <path fill-rule="evenodd" clip-rule="evenodd"
        d="M20.4999 2.0835C19.4916 2.0835 18.5632 2.3335 17.5482 2.7535C16.5666 3.16016 15.4266 3.7585 14.0082 4.5035L10.5616 6.31183C8.81992 7.22516 7.42825 7.95683 6.34992 8.67516C5.23658 9.42016 4.37658 10.2035 3.75159 11.2652C3.12825 12.3235 2.84825 13.4702 2.71325 14.8352C2.58325 16.1602 2.58325 17.7885 2.58325 19.8385V20.1618C2.58325 22.2118 2.58325 23.8402 2.71325 25.1652C2.84825 26.5318 3.12992 27.6768 3.75159 28.7352C4.37658 29.7968 5.23492 30.5802 6.35158 31.3252C7.42658 32.0435 8.81992 32.7752 10.5616 33.6885L14.0082 35.4968C15.4266 36.2418 16.5666 36.8402 17.5482 37.2468C18.5649 37.6668 19.4916 37.9168 20.4999 37.9168C21.5082 37.9168 22.4366 37.6668 23.4516 37.2468C24.4332 36.8402 25.5732 36.2418 26.9916 35.4968L30.4382 33.6902C32.1799 32.7752 33.5716 32.0435 34.6482 31.3252C35.7649 30.5802 36.6232 29.7968 37.2482 28.7352C37.8716 27.6768 38.1516 26.5302 38.2866 25.1652C38.4166 23.8402 38.4166 22.2118 38.4166 20.1635V19.8368C38.4166 17.7885 38.4166 16.1602 38.2866 14.8352C38.1516 13.4685 37.8699 12.3235 37.2482 11.2652C36.6232 10.2035 35.7649 9.42016 34.6482 8.67516C33.5732 7.95683 32.1799 7.22516 30.4382 6.31183L26.9916 4.5035C25.5732 3.7585 24.4332 3.16016 23.4516 2.7535C22.4349 2.3335 21.5082 2.0835 20.4999 2.0835ZM15.1166 6.7435C16.5999 5.96516 17.6399 5.42183 18.5032 5.06516C19.3432 4.71683 19.9349 4.5835 20.4999 4.5835C21.0666 4.5835 21.6566 4.71683 22.4966 5.06516C23.3599 5.42183 24.3982 5.96516 25.8816 6.7435L29.2149 8.4935C31.0316 9.44516 32.3066 10.1168 33.2616 10.7535C33.7316 11.0685 34.0999 11.3602 34.3999 11.6535L28.8482 14.4285L14.6816 6.97183L15.1166 6.7435ZM12.0749 8.34016L11.7849 8.4935C9.96825 9.44516 8.69325 10.1168 7.73992 10.7535C7.33344 11.0176 6.95236 11.3189 6.60158 11.6535L20.4999 18.6035L26.0949 15.8035L12.4183 8.60683C12.29 8.53732 12.174 8.44724 12.0749 8.34016ZM5.39658 13.8452C5.31325 14.2018 5.24825 14.6068 5.20159 15.0785C5.08492 16.2685 5.08325 17.7735 5.08325 19.9018V20.0968C5.08325 22.2268 5.08325 23.7318 5.20159 24.9202C5.31659 26.0818 5.53492 26.8335 5.90658 27.4668C6.27658 28.0952 6.81158 28.6268 7.73992 29.2468C8.69325 29.8835 9.96825 30.5552 11.7849 31.5068L15.1182 33.2568C16.6016 34.0352 17.6399 34.5785 18.5032 34.9352C18.7744 35.0474 19.0232 35.139 19.2499 35.2102V20.7718L5.39658 13.8452ZM21.7499 35.2085C21.9766 35.1385 22.2255 35.0474 22.4966 34.9352C23.3599 34.5785 24.3982 34.0352 25.8816 33.2568L29.2149 31.5068C31.0316 30.5535 32.3066 29.8835 33.2616 29.2468C34.1882 28.6268 34.7232 28.0952 35.0949 27.4668C35.4666 26.8335 35.6832 26.0835 35.7982 24.9202C35.9149 23.7318 35.9166 22.2268 35.9166 20.0985V19.9035C35.9166 17.7735 35.9166 16.2685 35.7982 15.0802C35.759 14.6654 35.6939 14.2535 35.6032 13.8468L30.0832 16.6052V21.6668C30.0832 21.9983 29.9516 22.3163 29.7171 22.5507C29.4827 22.7851 29.1648 22.9168 28.8332 22.9168C28.5017 22.9168 28.1838 22.7851 27.9494 22.5507C27.7149 22.3163 27.5832 21.9983 27.5832 21.6668V17.8568L21.7499 20.7735V35.2085Z"
        fill="currentColor" />
</svg>