<svg viewBox="0 0 18 18" fill="none" xmlns="http://www.w3.org/2000/svg">
<g clip-path="url(#clip0_2010_3594)">
<path d="M9 1.00006C8.28163 1.00254 7.56687 1.10177 6.875 1.29506L7.26 2.22506C8.75533 1.82913 10.3395 1.93709 11.7673 2.53222C13.1951 3.12735 14.3869 4.17648 15.1583 5.51724C15.9298 6.85801 16.2378 8.41566 16.0348 9.94913C15.8317 11.4826 15.1289 12.9064 14.0351 14.0002C12.9414 15.094 11.5175 15.7968 9.98407 15.9998C8.45059 16.2029 6.89294 15.8949 5.55218 15.1234C4.21142 14.352 3.16229 13.1601 2.56716 11.7323C1.97203 10.3045 1.86407 8.72039 2.26 7.22506L1.33 6.83506C0.876154 8.44956 0.94117 10.1659 1.51586 11.7414C2.09054 13.3169 3.14584 14.672 4.53259 15.6151C5.91935 16.5582 7.56743 17.0417 9.24391 16.9972C10.9204 16.9527 12.5405 16.3824 13.8752 15.367C15.2099 14.3516 16.1918 12.9424 16.6821 11.3386C17.1723 9.73474 17.1461 8.01741 16.6072 6.42929C16.0683 4.84116 15.0439 3.46256 13.6789 2.48831C12.3138 1.51407 10.6771 0.993459 9 1.00006Z" fill="currentColor"/>
<path d="M3.72507 7.85004C3.47552 8.99033 3.60181 10.1808 4.08507 11.2433C4.56834 12.3058 5.38259 13.1834 6.40606 13.7447C7.42952 14.306 8.60719 14.5209 9.76294 14.3572C10.9187 14.1935 11.9904 13.6601 12.8178 12.8367C13.6452 12.0133 14.1837 10.9442 14.353 9.78927C14.5222 8.63433 14.313 7.45563 13.7567 6.42947C13.2003 5.4033 12.3267 4.58482 11.2666 4.09643C10.2064 3.60804 9.01655 3.47599 7.87507 3.72004L8.18507 4.50004C9.15624 4.31821 10.1601 4.45252 11.0493 4.88326C11.9386 5.31399 12.6663 6.01846 13.1256 6.89323C13.585 7.768 13.7518 8.767 13.6016 9.74356C13.4513 10.7201 12.992 11.6228 12.291 12.3191C11.5899 13.0153 10.6842 13.4685 9.7066 13.6121C8.72904 13.7557 7.7312 13.5821 6.85958 13.1168C5.98795 12.6515 5.28846 11.919 4.86378 11.0269C4.43911 10.1347 4.31164 9.12995 4.50007 8.16004L3.72507 7.85004Z" fill="currentColor"/>
<path d="M9.00006 11.0449C8.49886 11.0375 8.01794 10.8458 7.64906 10.5065C7.28017 10.1671 7.04915 9.70378 7.00006 9.20494L6.18506 8.86494V8.99994C6.18509 9.5639 6.35273 10.1151 6.66669 10.5836C6.98065 11.0521 7.42676 11.4167 7.94837 11.6311C8.46997 11.8456 9.04354 11.9001 9.59622 11.7879C10.1489 11.6757 10.6558 11.4017 11.0524 11.0008C11.4491 10.5999 11.7176 10.0902 11.824 9.53636C11.9304 8.98252 11.8697 8.40956 11.6498 7.89026C11.4298 7.37096 11.0605 6.92874 10.5887 6.61976C10.117 6.31078 9.56399 6.149 9.00006 6.15494H8.88006L9.21506 6.99994C9.7148 7.07573 10.1685 7.33478 10.4877 7.72666C10.8069 8.11855 10.9689 8.61521 10.9421 9.11995C10.9152 9.62469 10.7015 10.1014 10.3426 10.4572C9.98358 10.8131 9.50502 11.0226 9.00006 11.0449Z" fill="currentColor"/>
<path d="M4.09991 6.66987C4.14606 6.71697 4.20896 6.74393 4.27491 6.74487H6.09991L8.78491 9.42987C8.87906 9.52468 9.00702 9.57821 9.14064 9.57868C9.27426 9.57915 9.40259 9.52652 9.49741 9.43237C9.59222 9.33822 9.64575 9.21026 9.64622 9.07664C9.64669 8.94302 9.59406 8.81468 9.49991 8.71987L6.76491 5.99987V4.25487C6.76397 4.18893 6.73701 4.12602 6.68991 4.07987L3.89491 1.28487C3.85996 1.25061 3.81573 1.22736 3.7677 1.218C3.71967 1.20863 3.66994 1.21358 3.62469 1.23221C3.57944 1.25084 3.54066 1.28235 3.51314 1.32281C3.48563 1.36328 3.47059 1.41094 3.46991 1.45987V3.45987H1.49991C1.45098 3.46055 1.40332 3.47559 1.36285 3.5031C1.32238 3.53062 1.29088 3.5694 1.27225 3.61466C1.25362 3.65991 1.24867 3.70963 1.25803 3.75766C1.26739 3.8057 1.29065 3.84992 1.32491 3.88487L4.09991 6.66987Z" fill="currentColor"/>
</g>
<defs>
<clipPath id="clip0_2010_3594">
<rect width="18" height="18" fill="white"/>
</clipPath>
</defs>
</svg>
