<svg viewBox="0 0 21 21" fill="none" xmlns="http://www.w3.org/2000/svg">
    <g clip-path="url(#clip0_1400_12303)">
        <path fill-rule="evenodd" clip-rule="evenodd"
            d="M17.0129 6.5H7.9869C7.61128 6.50002 7.24049 6.58469 6.90208 6.74771C6.56368 6.91073 6.26635 7.1479 6.03221 7.44162C5.79806 7.73533 5.63311 8.07803 5.54961 8.44426C5.46611 8.81048 5.46621 9.19082 5.5499 9.557L6.4629 13.557C6.58909 14.1091 6.89902 14.6021 7.34194 14.9551C7.78487 15.3081 8.33452 15.5002 8.9009 15.5H16.0999C16.6661 15.5 17.2155 15.3077 17.6582 14.9548C18.101 14.6018 18.4107 14.109 18.5369 13.557L19.4499 9.557C19.5336 9.19082 19.5337 8.81048 19.4502 8.44426C19.3667 8.07803 19.2017 7.73533 18.9676 7.44162C18.7334 7.1479 18.4361 6.91073 18.0977 6.74771C17.7593 6.58469 17.3885 6.50002 17.0129 6.5ZM7.8759 8.513C7.9123 8.50453 7.94953 8.50017 7.9869 8.5H17.0129C17.0879 8.50008 17.162 8.51705 17.2296 8.54966C17.2972 8.58226 17.3566 8.62967 17.4034 8.68836C17.4501 8.74704 17.4831 8.81551 17.4998 8.88867C17.5165 8.96184 17.5166 9.03782 17.4999 9.111L16.5869 13.111C16.5618 13.2214 16.4999 13.32 16.4114 13.3907C16.323 13.4613 16.2131 13.4999 16.0999 13.5H8.8999C8.78667 13.4999 8.67684 13.4613 8.58837 13.3907C8.4999 13.32 8.43804 13.2214 8.4129 13.111L7.4999 9.111C7.4706 8.98185 7.49374 8.84635 7.56423 8.73424C7.63472 8.62213 7.74681 8.54256 7.8759 8.513Z"
            fill="currentColor" />
        <path
            d="M3.99 2.5H2.5C2.23478 2.5 1.98043 2.39464 1.79289 2.20711C1.60536 2.01957 1.5 1.76522 1.5 1.5C1.5 1.23478 1.60536 0.98043 1.79289 0.792893C1.98043 0.605357 2.23478 0.5 2.5 0.5H4.79C5.0169 0.500113 5.23702 0.577388 5.41419 0.719131C5.59137 0.860874 5.71508 1.05866 5.765 1.28L8.475 13.28C8.50855 13.4097 8.5157 13.5448 8.49604 13.6773C8.47637 13.8098 8.43028 13.937 8.36051 14.0513C8.29074 14.1657 8.19871 14.2648 8.08988 14.3429C7.98105 14.421 7.85765 14.4765 7.72698 14.5059C7.59631 14.5354 7.46106 14.5384 7.32924 14.5146C7.19742 14.4908 7.07172 14.4407 6.95961 14.3674C6.8475 14.2941 6.75126 14.199 6.6766 14.0878C6.60194 13.9766 6.55039 13.8515 6.525 13.72L3.99 2.5ZM10.5 17.75C10.5 17.9798 10.4547 18.2074 10.3668 18.4197C10.2788 18.632 10.1499 18.8249 9.98744 18.9874C9.82493 19.1499 9.63202 19.2788 9.4197 19.3668C9.20738 19.4547 8.97981 19.5 8.75 19.5C8.52019 19.5 8.29262 19.4547 8.0803 19.3668C7.86798 19.2788 7.67507 19.1499 7.51256 18.9874C7.35006 18.8249 7.22116 18.632 7.13321 18.4197C7.04526 18.2074 7 17.9798 7 17.75C7 17.2859 7.18437 16.8408 7.51256 16.5126C7.84075 16.1844 8.28587 16 8.75 16C9.21413 16 9.65925 16.1844 9.98744 16.5126C10.3156 16.8408 10.5 17.2859 10.5 17.75ZM17.5 17.75C17.5 18.2141 17.3156 18.6592 16.9874 18.9874C16.6592 19.3156 16.2141 19.5 15.75 19.5C15.2859 19.5 14.8408 19.3156 14.5126 18.9874C14.1844 18.6592 14 18.2141 14 17.75C14 17.2859 14.1844 16.8408 14.5126 16.5126C14.8408 16.1844 15.2859 16 15.75 16C16.2141 16 16.6592 16.1844 16.9874 16.5126C17.3156 16.8408 17.5 17.2859 17.5 17.75Z"
            fill="currentColor" />
    </g>
    <defs>
        <clipPath id="clip0_1400_12303">
            <rect width="20" height="20" fill="currentColor" transform="translate(0.5 0.5)" />
        </clipPath>
    </defs>
</svg>
    