<svg viewBox="0 0 17 17" fill="none" xmlns="http://www.w3.org/2000/svg">
<path d="M8.75 1.5C4.85 1.5 1.75 4.6 1.75 8.5C1.75 12.4 4.85 15.5 8.75 15.5C12.65 15.5 15.75 12.4 15.75 8.5C15.75 4.6 12.65 1.5 8.75 1.5ZM8.75 14.5C5.45 14.5 2.75 11.8 2.75 8.5C2.75 5.2 5.45 2.5 8.75 2.5C12.05 2.5 14.75 5.2 14.75 8.5C14.75 11.8 12.05 14.5 8.75 14.5Z" fill="currentColor"/>
<path d="M11.45 12L8.75 9.3L6.05 12L5.25 11.2L7.95 8.5L5.25 5.8L6.05 5L8.75 7.7L11.45 5L12.25 5.8L9.55 8.5L12.25 11.2L11.45 12Z" fill="currentColor"/>
</svg>
