<svg viewBox="0 0 16 17" fill="none" xmlns="http://www.w3.org/2000/svg">
    <path
        d="M6.35533 7.43409C6.24259 7.54685 6.15317 7.68072 6.0922 7.82806C6.03123 7.97539 5.9999 8.1333 6 8.29276V10.0008H7.71867C8.04067 10.0008 8.35 9.87276 8.578 9.64476L13.6447 4.57542C13.7576 4.46272 13.8473 4.32883 13.9084 4.18143C13.9696 4.03403 14.0011 3.87601 14.0011 3.71642C14.0011 3.55684 13.9696 3.39882 13.9084 3.25142C13.8473 3.10402 13.7576 2.97013 13.6447 2.85742L13.144 2.35676C13.0313 2.24367 12.8974 2.15395 12.7499 2.09273C12.6024 2.03151 12.4443 2 12.2847 2C12.125 2 11.9669 2.03151 11.8194 2.09273C11.672 2.15395 11.5381 2.24367 11.4253 2.35676L6.35533 7.43409Z"
        stroke="currentColor" stroke-linecap="round" stroke-linejoin="round" />
    <path
        d="M14 8.00098C14 10.8296 14 12.2436 13.1213 13.1223C12.2427 14.001 10.828 14.001 8 14.001C5.172 14.001 3.75733 14.001 2.87867 13.1223C2 12.2436 2 10.829 2 8.00098C2 5.17298 2 3.75831 2.87867 2.87964C3.75733 2.00098 5.172 2.00098 8 2.00098"
        stroke="currentColor" stroke-linecap="round" stroke-linejoin="round" />
</svg>