<svg viewBox="0 0 4 10" fill="none" xmlns="http://www.w3.org/2000/svg">
    <path
        d="M1.99992 6.66667C2.22093 6.66667 2.43289 6.57887 2.58917 6.42259C2.74545 6.26631 2.83325 6.05435 2.83325 5.83333V0.833333C2.83325 0.61232 2.74545 0.400358 2.58917 0.244078C2.43289 0.0877975 2.22093 0 1.99992 0C1.7789 0 1.56694 0.0877975 1.41066 0.244078C1.25438 0.400358 1.16659 0.61232 1.16659 0.833333V5.83333C1.16659 6.05435 1.25438 6.26631 1.41066 6.42259C1.56694 6.57887 1.7789 6.66667 1.99992 6.66667ZM1.99992 10C2.20594 10 2.40734 9.93891 2.57864 9.82445C2.74994 9.70999 2.88345 9.5473 2.96229 9.35696C3.04113 9.16662 3.06176 8.95718 3.02157 8.75511C2.98138 8.55305 2.88217 8.36744 2.73649 8.22176C2.59081 8.07608 2.4052 7.97687 2.20314 7.93668C2.00107 7.89649 1.79163 7.91712 1.60129 7.99596C1.41095 8.0748 1.24826 8.20831 1.1338 8.37961C1.01934 8.55091 0.958252 8.75231 0.958252 8.95833C0.958252 9.2346 1.068 9.49955 1.26335 9.6949C1.4587 9.89025 1.72365 10 1.99992 10Z"
        fill="currentColor" />
</svg>