<svg viewBox="0 0 20 20" fill="none" xmlns="http://www.w3.org/2000/svg">
    <path
        d="M11.6974 17.4475C11.5452 17.4474 11.3959 17.4056 11.2658 17.3267L8.48742 15.66C8.17482 15.4715 7.91606 15.2056 7.73609 14.888C7.55612 14.5704 7.461 14.2117 7.45992 13.8467V10.0758C7.46045 9.80971 7.3777 9.55008 7.22325 9.33335L3.34409 3.88168C3.2535 3.75583 3.19945 3.6074 3.18789 3.45277C3.17633 3.29814 3.20771 3.14332 3.27857 3.00539C3.34943 2.86747 3.45701 2.7518 3.58945 2.67115C3.72188 2.5905 3.87402 2.548 4.02909 2.54835H15.9708C16.1259 2.5477 16.2783 2.59001 16.4109 2.6706C16.5435 2.75119 16.6512 2.8669 16.7222 3.00494C16.7931 3.14297 16.8244 3.29794 16.8127 3.45268C16.801 3.60742 16.7466 3.7559 16.6558 3.88168L12.7766 9.33335C12.6218 9.54998 12.5388 9.80962 12.5391 10.0758V16.6042C12.5389 16.8275 12.4502 17.0416 12.2924 17.1997C12.1347 17.3577 11.9207 17.4469 11.6974 17.4475ZM4.02909 3.38585L7.90159 8.85001C8.15823 9.20705 8.29533 9.63614 8.29325 10.0758V13.8458C8.29356 14.067 8.35103 14.2844 8.4601 14.4769C8.56917 14.6693 8.72613 14.8303 8.91575 14.9442L11.6941 16.6108L11.7058 10.075C11.7039 9.63522 11.8413 9.20612 12.0983 8.84918L15.9766 3.39751L4.02909 3.38585Z"
        fill="currentColor" />
</svg>
    