<svg viewBox="0 0 24 19" fill="none" xmlns="http://www.w3.org/2000/svg">
    <path
        d="M23.0962 11.7891C22.8177 11.5759 22.4933 11.4295 22.1484 11.3615C21.8036 11.2935 21.4475 11.3056 21.1082 11.397L16.5076 12.448C16.6584 12.0504 16.71 11.6223 16.6578 11.2005C16.6056 10.7787 16.4512 10.3758 16.2079 10.0264C15.9647 9.67687 15.6397 9.39124 15.261 9.19395C14.8823 8.99666 14.4611 8.8936 14.0335 8.89362H8.94278C8.542 8.89248 8.14498 8.97042 7.77473 9.12291C7.40448 9.27541 7.06838 9.49942 6.78589 9.78197L4.42563 12.1277H1.42369C1.0461 12.1277 0.683981 12.2767 0.416988 12.5421C0.149995 12.8074 0 13.1673 0 13.5426V17.5851C0 17.9604 0.149995 18.3202 0.416988 18.5856C0.683981 18.8509 1.0461 19 1.42369 19H11.9996C12.0497 19 12.0996 18.9939 12.1481 18.9818L18.6564 17.3648C18.6872 17.3567 18.7174 17.3466 18.7469 17.3345L22.6946 15.6649L22.7281 15.6497C23.0772 15.4765 23.3761 15.2178 23.5967 14.898C23.8174 14.5783 23.9525 14.2079 23.9893 13.8219C24.0261 13.4359 23.9635 13.0469 23.8072 12.6917C23.651 12.3364 23.4063 12.0265 23.0962 11.7911V11.7891ZM1.2203 17.5851V13.5426C1.2203 13.4889 1.24173 13.4375 1.27987 13.3996C1.31801 13.3617 1.36974 13.3404 1.42369 13.3404H4.06767V17.7872H1.42369C1.36974 17.7872 1.31801 17.7659 1.27987 17.728C1.24173 17.6901 1.2203 17.6387 1.2203 17.5851ZM22.1973 14.5532L18.3127 16.1975L11.9244 17.7872H5.28797V12.9857L7.64824 10.639C7.81785 10.4695 8.01961 10.3352 8.24182 10.2438C8.46403 10.1524 8.70228 10.1057 8.94278 10.1064H14.0335C14.4111 10.1064 14.7732 10.2555 15.0402 10.5208C15.3072 10.7861 15.4572 11.146 15.4572 11.5213C15.4572 11.8965 15.3072 12.2564 15.0402 12.5218C14.7732 12.7871 14.4111 12.9362 14.0335 12.9362H11.1861C11.0243 12.9362 10.8691 13.0001 10.7547 13.1138C10.6402 13.2275 10.5759 13.3817 10.5759 13.5426C10.5759 13.7034 10.6402 13.8576 10.7547 13.9713C10.8691 14.0851 11.0243 14.1489 11.1861 14.1489H14.4402C14.4861 14.149 14.5318 14.1439 14.5765 14.1338L21.3899 12.5764L21.4143 12.5703C21.6707 12.5008 21.9439 12.528 22.1815 12.6465C22.419 12.765 22.6041 12.9666 22.7012 13.2125C22.7983 13.4584 22.8006 13.7313 22.7076 13.9787C22.6146 14.2262 22.4328 14.4308 22.1973 14.5532ZM16.4741 6.87234C16.723 6.87224 16.9711 6.84581 17.2144 6.79351C17.3974 7.43936 17.7666 8.01784 18.2766 8.45755C18.7865 8.89727 19.4149 9.179 20.084 9.26797C20.7532 9.35693 21.434 9.24924 22.0423 8.9582C22.6506 8.66715 23.1598 8.20547 23.5072 7.63013C23.8546 7.05479 24.0249 6.39097 23.9971 5.72057C23.9693 5.05017 23.7446 4.40254 23.3507 3.85757C22.9568 3.31261 22.4111 2.89417 21.7807 2.65387C21.1503 2.41358 20.463 2.36196 19.8035 2.50537C19.6292 1.88981 19.2855 1.33479 18.8111 0.902768C18.3367 0.470744 17.7504 0.178854 17.1182 0.0599372C16.4859 -0.0589796 15.8329 -0.000204712 15.2324 0.229649C14.632 0.459503 14.108 0.851316 13.7194 1.36101C13.3308 1.8707 13.093 2.47804 13.0329 3.11471C12.9727 3.75138 13.0924 4.39211 13.3787 4.96482C13.6649 5.53753 14.1063 6.0195 14.6532 6.35649C15.2 6.69348 15.8306 6.87213 16.4741 6.87234ZM22.779 5.8617C22.779 6.30145 22.6478 6.73132 22.4019 7.09696C22.1561 7.4626 21.8067 7.74758 21.3979 7.91586C20.9891 8.08414 20.5393 8.12818 20.1053 8.04239C19.6713 7.95659 19.2727 7.74484 18.9598 7.43389C18.6469 7.12294 18.4338 6.72677 18.3475 6.29547C18.2612 5.86417 18.3055 5.41712 18.4748 5.01084C18.6442 4.60457 18.9309 4.25732 19.2988 4.01301C19.6667 3.7687 20.0993 3.6383 20.5417 3.6383C21.1351 3.6383 21.7041 3.87255 22.1237 4.28952C22.5433 4.70649 22.779 5.27202 22.779 5.8617ZM16.4741 1.21277C16.9877 1.21216 17.4858 1.38769 17.8843 1.70971C18.2828 2.03174 18.5573 2.48054 18.6615 2.98037C18.2192 3.26539 17.8483 3.64714 17.5772 4.09643C17.3062 4.54572 17.1421 5.05067 17.0974 5.57266C16.7899 5.66072 16.4669 5.68218 16.1503 5.63559C15.8337 5.58899 15.5309 5.47543 15.2622 5.30256C14.9935 5.1297 14.7653 4.90155 14.593 4.63354C14.4206 4.36552 14.3081 4.06388 14.2631 3.74896C14.2181 3.43405 14.2415 3.1132 14.332 2.80807C14.4224 2.50295 14.5776 2.22066 14.7872 1.98026C14.9968 1.73985 15.2558 1.54694 15.5468 1.41454C15.8378 1.28214 16.154 1.21333 16.4741 1.21277Z"
        fill="currentColor" />
</svg>