<svg viewBox="0 0 21 20" fill="none" xmlns="http://www.w3.org/2000/svg">
<path fill-rule="evenodd" clip-rule="evenodd" d="M9.93079 2.33484C8.48433 2.4895 7.11116 3.0503 5.96997 3.95244C4.82879 4.85458 3.96617 6.06122 3.48181 7.43292C2.99745 8.80462 2.91113 10.2854 3.23282 11.7041C3.5545 13.1228 4.27107 14.4215 5.2997 15.4501C6.32833 16.4787 7.62704 17.1953 9.04573 17.517C10.4644 17.8387 11.9452 17.7523 13.3169 17.268C14.6886 16.7836 15.8952 15.921 16.7974 14.7798C17.6995 13.6386 18.2603 12.2655 18.415 10.819C17.887 11.4899 17.2228 12.0413 16.4661 12.4368C15.7095 12.8323 14.8777 13.0629 14.0254 13.1135C13.1732 13.1641 12.3199 13.0335 11.5218 12.7304C10.7237 12.4272 9.9989 11.9583 9.39521 11.3546C8.79151 10.7509 8.32262 10.0261 8.01944 9.22801C7.71625 8.42991 7.58566 7.57662 7.63627 6.72437C7.68687 5.87212 7.91753 5.04027 8.31303 4.28366C8.70853 3.52705 9.2599 2.86285 9.93079 2.33484ZM1.79163 9.99984C1.79163 5.05234 5.80246 1.0415 10.75 1.0415C11.3475 1.0415 11.6458 1.51734 11.6975 1.8965C11.7466 2.2615 11.6116 2.72567 11.1925 2.979C10.5699 3.35472 10.041 3.86719 9.64591 4.47759C9.25078 5.088 8.99974 5.78032 8.91183 6.50212C8.82392 7.22392 8.90143 7.95626 9.1385 8.64367C9.37557 9.33107 9.76597 9.95551 10.2801 10.4697C10.7943 10.9838 11.4187 11.3742 12.1061 11.6113C12.7935 11.8484 13.5259 11.9259 14.2477 11.838C14.9695 11.7501 15.6618 11.499 16.2722 11.1039C16.8826 10.7088 17.3951 10.1799 17.7708 9.55734C18.0241 9.13817 18.4883 9.00317 18.8533 9.05234C19.2325 9.104 19.7083 9.40234 19.7083 9.99984C19.7083 14.9473 15.6975 18.9582 10.75 18.9582C5.80246 18.9582 1.79163 14.9473 1.79163 9.99984Z" fill="currentColor"/>
</svg>
