<svg viewBox="0 0 16 17" fill="none" xmlns="http://www.w3.org/2000/svg">
<path d="M8.66659 4.50016C8.66659 4.32335 8.59635 4.15378 8.47132 4.02876C8.3463 3.90373 8.17673 3.8335 7.99992 3.8335C7.82311 3.8335 7.65354 3.90373 7.52851 4.02876C7.40349 4.15378 7.33325 4.32335 7.33325 4.50016V7.8335H3.99992C3.82311 7.8335 3.65354 7.90373 3.52851 8.02876C3.40349 8.15378 3.33325 8.32335 3.33325 8.50016C3.33325 8.67697 3.40349 8.84654 3.52851 8.97157C3.65354 9.09659 3.82311 9.16683 3.99992 9.16683H7.33325V12.5002C7.33325 12.677 7.40349 12.8465 7.52851 12.9716C7.65354 13.0966 7.82311 13.1668 7.99992 13.1668C8.17673 13.1668 8.3463 13.0966 8.47132 12.9716C8.59635 12.8465 8.66659 12.677 8.66659 12.5002V9.16683H11.9999C12.1767 9.16683 12.3463 9.09659 12.4713 8.97157C12.5963 8.84654 12.6666 8.67697 12.6666 8.50016C12.6666 8.32335 12.5963 8.15378 12.4713 8.02876C12.3463 7.90373 12.1767 7.8335 11.9999 7.8335H8.66659V4.50016Z" fill="currentColor"/>
</svg>
