<svg viewBox="0 0 20 20" fill="none" xmlns="http://www.w3.org/2000/svg">
    <path
        d="M6.83131 12.2877C7.02654 12.4269 7.26043 12.5017 7.50026 12.5015C7.74008 12.5013 7.97383 12.4261 8.16881 12.2864C8.36371 12.1407 8.51185 11.9413 8.59506 11.7127L9.02881 10.3789C9.13285 10.0647 9.30886 9.77911 9.54281 9.54494C9.77676 9.31077 10.0622 9.1345 10.3763 9.03017L11.7338 8.58892C11.9615 8.50726 12.1577 8.35613 12.2948 8.15687C12.4319 7.95762 12.5029 7.72033 12.4978 7.47852C12.4927 7.23672 12.4117 7.00264 12.2663 6.80936C12.1209 6.61608 11.9185 6.47338 11.6876 6.40142L10.3513 5.96892C10.0368 5.86504 9.75102 5.6891 9.51662 5.45515C9.28223 5.22119 9.10577 4.93568 9.00131 4.62142L8.56006 3.26642C8.47998 3.04266 8.33254 2.8492 8.13802 2.71266C7.94351 2.57612 7.71146 2.50319 7.47381 2.50392C7.23275 2.50289 6.99746 2.57764 6.8012 2.71761C6.60493 2.85757 6.45761 3.05567 6.38006 3.28392L5.93506 4.64642C5.83056 4.95137 5.65844 5.22874 5.43158 5.45776C5.20472 5.68678 4.929 5.86153 4.62506 5.96892L3.27006 6.40767C3.04369 6.48766 2.84792 6.63628 2.71002 6.83282C2.57213 7.02935 2.49898 7.264 2.50076 7.50408C2.50255 7.74416 2.57919 7.9777 2.72 8.17216C2.86081 8.36662 3.05877 8.5123 3.28631 8.58892L4.62006 9.02267C4.93495 9.12787 5.22101 9.30499 5.45555 9.53997C5.6901 9.77494 5.86668 10.0613 5.97131 10.3764L6.41131 11.7264C6.49006 11.9514 6.63756 12.1477 6.83256 12.2864M5.00881 7.82892L3.94006 7.49767L5.02006 7.14642C5.51329 6.97648 5.96041 6.69451 6.32631 6.32267C6.69131 5.94767 6.96631 5.49767 7.13131 5.00267L7.46256 3.92892L7.81256 5.00642C7.97832 5.50658 8.25889 5.96098 8.6318 6.33324C9.00471 6.7055 9.45961 6.98528 9.96006 7.15017L11.0601 7.48642L9.98506 7.83642C9.4842 8.00168 9.02905 8.28202 8.65611 8.65496C8.28317 9.02791 8.00282 9.48306 7.83756 9.98392L7.50631 11.0552L7.15756 9.98142C6.99267 9.47973 6.71236 9.02374 6.33916 8.65011C5.96597 8.27648 5.5103 7.99439 5.00881 7.82892ZM13.1676 17.3139C13.3373 17.4346 13.5405 17.4993 13.7488 17.4989C13.9587 17.4968 14.1628 17.4295 14.3327 17.3063C14.5027 17.1832 14.6302 17.0102 14.6976 16.8114L15.0076 15.8589C15.0738 15.6614 15.1863 15.4802 15.3326 15.3327C15.4788 15.1852 15.6601 15.0739 15.8576 15.0089L16.8226 14.6939C17.0222 14.6255 17.195 14.4957 17.3163 14.323C17.4377 14.1504 17.5013 13.9438 17.4981 13.7329C17.4949 13.5219 17.4251 13.3173 17.2986 13.1484C17.1721 12.9796 16.9954 12.855 16.7938 12.7927L15.8388 12.4814C15.6414 12.4153 15.4619 12.3044 15.3144 12.1573C15.167 12.0103 15.0555 11.8312 14.9888 11.6339L14.6738 10.6664C14.606 10.4677 14.4775 10.2954 14.3063 10.1739C14.1351 10.0523 13.93 9.98774 13.7201 9.98926C13.5102 9.99078 13.3061 10.0583 13.1367 10.1823C12.9673 10.3063 12.8412 10.4805 12.7763 10.6802L12.4676 11.6327C12.4039 11.8285 12.2958 12.007 12.1519 12.1542C12.0079 12.3014 11.8319 12.4134 11.6376 12.4814L10.6676 12.7977C10.5207 12.8487 10.3878 12.9333 10.2794 13.0447C10.171 13.1561 10.09 13.2912 10.0429 13.4394C9.99584 13.5875 9.98395 13.7446 10.0082 13.8981C10.0324 14.0517 10.0921 14.1975 10.1826 14.3239C10.3063 14.4989 10.4813 14.6302 10.6826 14.6989L11.6363 15.0077C11.8344 15.0744 12.0143 15.1863 12.1618 15.3345C12.3093 15.4826 12.4204 15.663 12.4863 15.8614L12.8026 16.8289C12.871 17.0245 12.9986 17.194 13.1676 17.3139ZM12.0251 13.8227L11.8026 13.7489L12.0326 13.6689C12.4116 13.5377 12.7554 13.3209 13.0372 13.0354C13.319 12.75 13.5313 12.4034 13.6576 12.0227L13.7301 11.8002L13.8051 12.0264C13.9327 12.4095 14.1478 12.7576 14.4333 13.0432C14.7188 13.3287 15.067 13.5438 15.4501 13.6714L15.6938 13.7502L15.4688 13.8239C15.0848 13.952 14.736 14.168 14.4502 14.4546C14.1644 14.7413 13.9495 15.0908 13.8226 15.4752L13.7488 15.7014L13.6763 15.4752C13.5501 15.0897 13.3349 14.7392 13.0483 14.4522C12.7617 14.1651 12.4116 13.9495 12.0263 13.8227"
        fill="currentColor" />
</svg>