<svg viewBox="0 0 19 18" fill="none" xmlns="http://www.w3.org/2000/svg">
    <path d="M1.41663 9.3999H2.66663" stroke="currentColor" stroke-width="1.66667"
        stroke-linecap="round" stroke-linejoin="round" />
    <path d="M3.91663 3.56641L4.74996 4.39974" stroke="currentColor" stroke-width="1.66667"
        stroke-linecap="round" stroke-linejoin="round" />
    <path d="M9.75 1.06641V2.31641" stroke="currentColor" stroke-width="1.66667"
        stroke-linecap="round" stroke-linejoin="round" />
    <path
        d="M5.58325 9.39958C5.58325 7.09858 7.44892 5.23291 9.74992 5.23291C12.0509 5.23291 13.9166 7.09858 13.9166 9.39958C13.9166 10.8027 13.2231 12.0437 12.1603 12.7987"
        stroke="currentColor" stroke-width="1.66667" stroke-linecap="round" stroke-linejoin="round" />
    <path d="M15.5833 3.56641L14.75 4.39974" stroke="currentColor" stroke-width="1.66667"
        stroke-linecap="round" stroke-linejoin="round" />
    <path d="M18.0833 9.3999H16.8333" stroke="currentColor" stroke-width="1.66667"
        stroke-linecap="round" stroke-linejoin="round" />
    <path d="M15.5755 15.2258L14.9005 14.5508" stroke="currentColor" stroke-width="1.66667"
        stroke-linecap="round" stroke-linejoin="round" />
    <path
        d="M9.54157 11.0664C8.29157 11.0664 5.58328 11.1497 5.58328 12.3164C5.58328 13.4831 7.50236 13.4792 8.49986 13.5664C9.33328 13.6392 10.7759 14.2697 10.5832 15.2331C10.1665 17.3164 3.49987 16.8997 1.83325 16.8997"
        stroke="currentColor" stroke-width="1.66667" stroke-linecap="round" stroke-linejoin="round" />
</svg>