<svg viewBox="0 0 21 20" fill="none" xmlns="http://www.w3.org/2000/svg">
    <path
        d="M8.66663 6.25016C9.07663 6.67183 10.1666 8.3335 10.75 8.3335M10.75 8.3335C11.3333 8.3335 12.4233 6.67183 12.8333 6.25016M10.75 8.3335V3.3335"
        stroke="currentColor" stroke-linecap="round" stroke-linejoin="round" />
    <path
        d="M16.0525 8.86328L14.875 10.0416M3.25 14.1666H4.91667M5.4475 8.86328L6.625 10.0416M18.25 14.1666H16.5833M18.25 16.6666H3.25M14.0833 14.1666C14.0833 13.2826 13.7321 12.4347 13.107 11.8096C12.4819 11.1845 11.6341 10.8333 10.75 10.8333C9.86594 10.8333 9.0181 11.1845 8.39298 11.8096C7.76786 12.4347 7.41667 13.2826 7.41667 14.1666"
        stroke="currentColor" stroke-linecap="round" />
</svg>