<svg viewBox="0 0 24 24" fill="none" xmlns="http://www.w3.org/2000/svg">
<path fill-rule="evenodd" clip-rule="evenodd" d="M11.9999 20C16.4182 20 19.9999 16.4183 19.9999 12C19.9999 7.58169 16.4182 3.99997 11.9999 3.99997C7.74952 3.99997 4.27332 7.31459 4.01522 11.5H2.01221C2.27269 6.20942 6.64472 2 12 2C17.5227 2 21.9999 6.47713 21.9999 12C21.9999 17.5228 17.5227 22 12 22C9.597 22 7.392 21.1525 5.66761 19.74C5.1518 19.3175 4.67927 18.8447 4.257 18.3287L13.5857 8.99998H8.99991V6.99997H16.9999V15H14.9999V10.4142L7.09425 18.3199C8.44894 19.3729 10.1512 20 11.9999 20Z" fill="currentColor"/>
</svg>
